# xmcd
#
# Track frame offsets:
# 182
# 24020
# 35645
# 45747
# 72167
# 83202
# 98485
# 112402
# 132347
# 143737
# 159115
# 179942
# 190582
# 204300
# 217505
# 241920
#
# Disc length: 3453 seconds
#
#
# Revision: 1
# Processed by: cddbd v1.5.1PL0 Copyright (c) Steve Scherf et al.
# Submitted via: FreeRIP 2.942 
#
DISCID=d20d7b10
DTITLE=jazz originals - jazz originals vol2
DYEAR=1987
DGENRE=Jazz
TTITLE0=count basie - moten swing
TTITLE1=oscar peterson - birth of the blues
TTITLE2=benny goodman - let's dance
TTITLE3=miles davis - oleo
TTITLE4=glenn miller - chattanooga choo choo
TTITLE5=ella fitzgerald - fascinating rythm
TTITLE6=louis armstrong - rockin chair
TTITLE7=count basie - midnite blie
TTITLE8=oscar peterson - night and day
TTITLE9=benny goodman - somebody stole my gal
TTITLE10=miles davis - but not for me
TTITLE11=glenn miller - moonlight serenade
TTITLE12=ella fitzgerald - that certain feeling
TTITLE13=louis armstrong - the blues brewin
TTITLE14=dave brubeck - take five
TTITLE15=count basie - april in paris
EXTD=
EXTT0=
EXTT1=
EXTT2=
EXTT3=
EXTT4=
EXTT5=
EXTT6=
EXTT7=
EXTT8=
EXTT9=
EXTT10=
EXTT11=
EXTT12=
EXTT13=
EXTT14=
EXTT15=
PLAYORDER=
